<mxfile host="app.diagrams.net" agent="Mozilla/5.0 (Windows NT 10.0; Win64; x64) AppleWebKit/537.36 (KHTML, like Gecko) Chrome/129.0.0.0 Safari/537.36" version="24.7.17" pages="10">
  <diagram name="Page-1" id="_kPRoixBOy9qxSsMoa8L">
    <mxGraphModel grid="1" page="1" gridSize="10" guides="1" tooltips="1" connect="1" arrows="1" fold="1" pageScale="1" pageWidth="827" pageHeight="1169" math="0" shadow="0">
      <root>
        <mxCell id="0" />
        <mxCell id="1" parent="0" />
        <mxCell id="6sDptheRSpxYVMqvP1KL-7" value="&lt;font style=&quot;font-size: 15px;&quot; face=&quot;Comic Sans MS&quot;&gt;START&lt;/font&gt;" style="ellipse;whiteSpace=wrap;html=1;" vertex="1" parent="1">
          <mxGeometry x="354" y="130" width="120" height="80" as="geometry" />
        </mxCell>
        <mxCell id="6sDptheRSpxYVMqvP1KL-8" value="" style="endArrow=classic;html=1;rounded=0;" edge="1" parent="1">
          <mxGeometry width="50" height="50" relative="1" as="geometry">
            <mxPoint x="414" y="210" as="sourcePoint" />
            <mxPoint x="414" y="250" as="targetPoint" />
          </mxGeometry>
        </mxCell>
        <mxCell id="6sDptheRSpxYVMqvP1KL-9" value="&lt;font size=&quot;3&quot; face=&quot;Comic Sans MS&quot;&gt;Pilih nilai&amp;nbsp;&lt;/font&gt;&lt;span style=&quot;font-family: &amp;quot;Comic Sans MS&amp;quot;; font-size: medium; background-color: initial;&quot;&gt;Analog terhadap Potensio&lt;/span&gt;" style="shape=parallelogram;perimeter=parallelogramPerimeter;whiteSpace=wrap;html=1;fixedSize=1;" vertex="1" parent="1">
          <mxGeometry x="320" y="250" width="174" height="80" as="geometry" />
        </mxCell>
        <mxCell id="6sDptheRSpxYVMqvP1KL-10" value="" style="endArrow=classic;html=1;rounded=0;" edge="1" parent="1">
          <mxGeometry width="50" height="50" relative="1" as="geometry">
            <mxPoint x="400" y="330" as="sourcePoint" />
            <mxPoint x="400" y="370" as="targetPoint" />
          </mxGeometry>
        </mxCell>
        <mxCell id="6sDptheRSpxYVMqvP1KL-14" value="" style="endArrow=classic;html=1;rounded=0;exitX=0.75;exitY=0;exitDx=0;exitDy=0;entryX=0.75;entryY=1;entryDx=0;entryDy=0;" edge="1" parent="1">
          <mxGeometry width="50" height="50" relative="1" as="geometry">
            <mxPoint x="439.5" y="370" as="sourcePoint" />
            <mxPoint x="439.5" y="330" as="targetPoint" />
          </mxGeometry>
        </mxCell>
        <mxCell id="6sDptheRSpxYVMqvP1KL-16" value="&lt;font size=&quot;3&quot; face=&quot;Comic Sans MS&quot;&gt;Menampilkan nilai&lt;/font&gt;&lt;div&gt;&lt;font size=&quot;3&quot; face=&quot;Comic Sans MS&quot;&gt;Analog Potensio&lt;/font&gt;&lt;/div&gt;" style="shape=parallelogram;perimeter=parallelogramPerimeter;whiteSpace=wrap;html=1;fixedSize=1;" vertex="1" parent="1">
          <mxGeometry x="330" y="370" width="164" height="80" as="geometry" />
        </mxCell>
      </root>
    </mxGraphModel>
  </diagram>
  <diagram name="Copy of Page-1" id="O1_OayAkBSZjIF1efuQH">
    <mxGraphModel dx="346" dy="276" grid="0" gridSize="10" guides="1" tooltips="1" connect="1" arrows="1" fold="1" page="0" pageScale="1" pageWidth="850" pageHeight="1100" math="0" shadow="0">
      <root>
        <mxCell id="WWciUWRnBZZ9eofVKHLs-0" />
        <mxCell id="WWciUWRnBZZ9eofVKHLs-1" parent="WWciUWRnBZZ9eofVKHLs-0" />
        <mxCell id="WWciUWRnBZZ9eofVKHLs-2" style="edgeStyle=none;curved=1;rounded=0;orthogonalLoop=1;jettySize=auto;html=1;exitX=0.5;exitY=1;exitDx=0;exitDy=0;fontSize=12;startSize=8;endSize=8;" edge="1" parent="WWciUWRnBZZ9eofVKHLs-1" source="WWciUWRnBZZ9eofVKHLs-3">
          <mxGeometry relative="1" as="geometry">
            <mxPoint x="179" y="265.9999694824219" as="targetPoint" />
          </mxGeometry>
        </mxCell>
        <mxCell id="WWciUWRnBZZ9eofVKHLs-3" value="START" style="ellipse;whiteSpace=wrap;html=1;" vertex="1" parent="WWciUWRnBZZ9eofVKHLs-1">
          <mxGeometry x="98" y="135" width="162" height="105" as="geometry" />
        </mxCell>
        <mxCell id="WWciUWRnBZZ9eofVKHLs-4" style="edgeStyle=none;curved=1;rounded=0;orthogonalLoop=1;jettySize=auto;html=1;exitX=0.5;exitY=1;exitDx=0;exitDy=0;fontSize=12;startSize=8;endSize=8;" edge="1" parent="WWciUWRnBZZ9eofVKHLs-1" source="WWciUWRnBZZ9eofVKHLs-5">
          <mxGeometry relative="1" as="geometry">
            <mxPoint x="175" y="410.79998779296875" as="targetPoint" />
          </mxGeometry>
        </mxCell>
        <mxCell id="WWciUWRnBZZ9eofVKHLs-5" value="Pilih nilai terhadap&amp;nbsp;&lt;div&gt;analog Potensio (0-10240)&lt;/div&gt;" style="shape=parallelogram;perimeter=parallelogramPerimeter;whiteSpace=wrap;html=1;fixedSize=1;" vertex="1" parent="WWciUWRnBZZ9eofVKHLs-1">
          <mxGeometry x="78" y="274" width="193" height="91" as="geometry" />
        </mxCell>
        <mxCell id="WWciUWRnBZZ9eofVKHLs-7" value="Menampilkan nilai voltage potensio" style="shape=parallelogram;perimeter=parallelogramPerimeter;whiteSpace=wrap;html=1;fixedSize=1;" vertex="1" parent="WWciUWRnBZZ9eofVKHLs-1">
          <mxGeometry x="84" y="538" width="181" height="94" as="geometry" />
        </mxCell>
        <mxCell id="LKzTZfADCMagp4abgQNa-1" style="edgeStyle=none;curved=1;rounded=0;orthogonalLoop=1;jettySize=auto;html=1;exitX=0.5;exitY=1;exitDx=0;exitDy=0;fontSize=12;startSize=8;endSize=8;" edge="1" parent="WWciUWRnBZZ9eofVKHLs-1" source="LKzTZfADCMagp4abgQNa-0">
          <mxGeometry relative="1" as="geometry">
            <mxPoint x="179" y="533.9090853604403" as="targetPoint" />
          </mxGeometry>
        </mxCell>
        <mxCell id="LKzTZfADCMagp4abgQNa-0" value="Memgubah nilai analog menjadi nilai vot ( tegangan ) (0-5)" style="rounded=0;whiteSpace=wrap;html=1;" vertex="1" parent="WWciUWRnBZZ9eofVKHLs-1">
          <mxGeometry x="105.75" y="416" width="146.5" height="80" as="geometry" />
        </mxCell>
        <mxCell id="LKzTZfADCMagp4abgQNa-2" value="" style="endArrow=none;html=1;rounded=0;fontSize=12;startSize=8;endSize=8;curved=1;" edge="1" parent="WWciUWRnBZZ9eofVKHLs-1">
          <mxGeometry width="50" height="50" relative="1" as="geometry">
            <mxPoint x="249" y="596" as="sourcePoint" />
            <mxPoint x="338" y="594" as="targetPoint" />
          </mxGeometry>
        </mxCell>
        <mxCell id="LKzTZfADCMagp4abgQNa-3" value="" style="endArrow=none;html=1;rounded=0;fontSize=12;startSize=8;endSize=8;curved=1;" edge="1" parent="WWciUWRnBZZ9eofVKHLs-1">
          <mxGeometry width="50" height="50" relative="1" as="geometry">
            <mxPoint x="338" y="593" as="sourcePoint" />
            <mxPoint x="341" y="323" as="targetPoint" />
          </mxGeometry>
        </mxCell>
        <mxCell id="LKzTZfADCMagp4abgQNa-4" value="" style="endArrow=classic;html=1;rounded=0;fontSize=12;startSize=8;endSize=8;curved=1;entryX=0.951;entryY=0.55;entryDx=0;entryDy=0;entryPerimeter=0;" edge="1" parent="WWciUWRnBZZ9eofVKHLs-1" target="WWciUWRnBZZ9eofVKHLs-5">
          <mxGeometry width="50" height="50" relative="1" as="geometry">
            <mxPoint x="342.5" y="324" as="sourcePoint" />
            <mxPoint x="259.99525075372003" y="321.79660907057405" as="targetPoint" />
            <Array as="points" />
          </mxGeometry>
        </mxCell>
      </root>
    </mxGraphModel>
  </diagram>
  <diagram name="Page-1" id="Os2X4hdNViJTJRLDSRUN">
    <mxGraphModel dx="762" dy="607" grid="0" gridSize="10" guides="1" tooltips="1" connect="1" arrows="1" fold="1" page="0" pageScale="1" pageWidth="850" pageHeight="1100" math="0" shadow="0">
      <root>
        <mxCell id="0" />
        <mxCell id="1" parent="0" />
        <mxCell id="6odC_s9sJOPoDGgsGerB-5" style="edgeStyle=none;curved=1;rounded=0;orthogonalLoop=1;jettySize=auto;html=1;exitX=0.5;exitY=1;exitDx=0;exitDy=0;fontSize=12;startSize=8;endSize=8;" edge="1" parent="1" source="6odC_s9sJOPoDGgsGerB-1">
          <mxGeometry relative="1" as="geometry">
            <mxPoint x="179" y="265.9999694824219" as="targetPoint" />
          </mxGeometry>
        </mxCell>
        <mxCell id="6odC_s9sJOPoDGgsGerB-1" value="START" style="ellipse;whiteSpace=wrap;html=1;" vertex="1" parent="1">
          <mxGeometry x="98" y="135" width="162" height="105" as="geometry" />
        </mxCell>
        <mxCell id="6odC_s9sJOPoDGgsGerB-6" style="edgeStyle=none;curved=1;rounded=0;orthogonalLoop=1;jettySize=auto;html=1;exitX=0.5;exitY=1;exitDx=0;exitDy=0;fontSize=12;startSize=8;endSize=8;" edge="1" parent="1" source="6odC_s9sJOPoDGgsGerB-2">
          <mxGeometry relative="1" as="geometry">
            <mxPoint x="175" y="410.79998779296875" as="targetPoint" />
          </mxGeometry>
        </mxCell>
        <mxCell id="6odC_s9sJOPoDGgsGerB-2" value="Pilih nilai terhadap&amp;nbsp;&lt;div&gt;analog Potensio&lt;/div&gt;" style="shape=parallelogram;perimeter=parallelogramPerimeter;whiteSpace=wrap;html=1;fixedSize=1;" vertex="1" parent="1">
          <mxGeometry x="78" y="274" width="193" height="91" as="geometry" />
        </mxCell>
        <mxCell id="6odC_s9sJOPoDGgsGerB-11" style="edgeStyle=none;curved=1;rounded=0;orthogonalLoop=1;jettySize=auto;html=1;exitX=0.75;exitY=0;exitDx=0;exitDy=0;fontSize=12;startSize=8;endSize=8;" edge="1" parent="1" source="6odC_s9sJOPoDGgsGerB-4">
          <mxGeometry relative="1" as="geometry">
            <mxPoint x="203" y="375.5999755859375" as="targetPoint" />
          </mxGeometry>
        </mxCell>
        <mxCell id="6odC_s9sJOPoDGgsGerB-4" value="Menampilkan nilai analog potensio" style="shape=parallelogram;perimeter=parallelogramPerimeter;whiteSpace=wrap;html=1;fixedSize=1;" vertex="1" parent="1">
          <mxGeometry x="67" y="423" width="181" height="94" as="geometry" />
        </mxCell>
      </root>
    </mxGraphModel>
  </diagram>
  <diagram name="Copy of Page-1" id="I4M1zzEleUtdqDSC1ZPs">
    <mxGraphModel dx="346" dy="276" grid="0" gridSize="10" guides="1" tooltips="1" connect="1" arrows="1" fold="1" page="0" pageScale="1" pageWidth="850" pageHeight="1100" math="0" shadow="0">
      <root>
        <mxCell id="WWciUWRnBZZ9eofVKHLs-0" />
        <mxCell id="WWciUWRnBZZ9eofVKHLs-1" parent="WWciUWRnBZZ9eofVKHLs-0" />
        <mxCell id="WWciUWRnBZZ9eofVKHLs-2" style="edgeStyle=none;curved=1;rounded=0;orthogonalLoop=1;jettySize=auto;html=1;exitX=0.5;exitY=1;exitDx=0;exitDy=0;fontSize=12;startSize=8;endSize=8;" edge="1" parent="WWciUWRnBZZ9eofVKHLs-1" source="WWciUWRnBZZ9eofVKHLs-3">
          <mxGeometry relative="1" as="geometry">
            <mxPoint x="179" y="265.9999694824219" as="targetPoint" />
          </mxGeometry>
        </mxCell>
        <mxCell id="WWciUWRnBZZ9eofVKHLs-3" value="START" style="ellipse;whiteSpace=wrap;html=1;" vertex="1" parent="WWciUWRnBZZ9eofVKHLs-1">
          <mxGeometry x="98" y="135" width="162" height="105" as="geometry" />
        </mxCell>
        <mxCell id="WWciUWRnBZZ9eofVKHLs-4" style="edgeStyle=none;curved=1;rounded=0;orthogonalLoop=1;jettySize=auto;html=1;exitX=0.5;exitY=1;exitDx=0;exitDy=0;fontSize=12;startSize=8;endSize=8;" edge="1" parent="WWciUWRnBZZ9eofVKHLs-1" source="WWciUWRnBZZ9eofVKHLs-5">
          <mxGeometry relative="1" as="geometry">
            <mxPoint x="175" y="410.79998779296875" as="targetPoint" />
          </mxGeometry>
        </mxCell>
        <mxCell id="WWciUWRnBZZ9eofVKHLs-5" value="Pilih nilai terhadap&amp;nbsp;&lt;div&gt;analog Potensio (0-10240)&lt;/div&gt;" style="shape=parallelogram;perimeter=parallelogramPerimeter;whiteSpace=wrap;html=1;fixedSize=1;" vertex="1" parent="WWciUWRnBZZ9eofVKHLs-1">
          <mxGeometry x="78" y="274" width="193" height="91" as="geometry" />
        </mxCell>
        <mxCell id="WWciUWRnBZZ9eofVKHLs-7" value="Menampilkan nilai voltage potensio" style="shape=parallelogram;perimeter=parallelogramPerimeter;whiteSpace=wrap;html=1;fixedSize=1;" vertex="1" parent="WWciUWRnBZZ9eofVKHLs-1">
          <mxGeometry x="84" y="538" width="181" height="94" as="geometry" />
        </mxCell>
        <mxCell id="LKzTZfADCMagp4abgQNa-1" style="edgeStyle=none;curved=1;rounded=0;orthogonalLoop=1;jettySize=auto;html=1;exitX=0.5;exitY=1;exitDx=0;exitDy=0;fontSize=12;startSize=8;endSize=8;" edge="1" parent="WWciUWRnBZZ9eofVKHLs-1" source="LKzTZfADCMagp4abgQNa-0">
          <mxGeometry relative="1" as="geometry">
            <mxPoint x="179" y="533.9090853604403" as="targetPoint" />
          </mxGeometry>
        </mxCell>
        <mxCell id="LKzTZfADCMagp4abgQNa-0" value="Memgubah nilai analog menjadi nilai vot ( tegangan ) (0-5)" style="rounded=0;whiteSpace=wrap;html=1;" vertex="1" parent="WWciUWRnBZZ9eofVKHLs-1">
          <mxGeometry x="105.75" y="416" width="146.5" height="80" as="geometry" />
        </mxCell>
        <mxCell id="LKzTZfADCMagp4abgQNa-2" value="" style="endArrow=none;html=1;rounded=0;fontSize=12;startSize=8;endSize=8;curved=1;" edge="1" parent="WWciUWRnBZZ9eofVKHLs-1">
          <mxGeometry width="50" height="50" relative="1" as="geometry">
            <mxPoint x="249" y="596" as="sourcePoint" />
            <mxPoint x="338" y="594" as="targetPoint" />
          </mxGeometry>
        </mxCell>
        <mxCell id="LKzTZfADCMagp4abgQNa-3" value="" style="endArrow=none;html=1;rounded=0;fontSize=12;startSize=8;endSize=8;curved=1;" edge="1" parent="WWciUWRnBZZ9eofVKHLs-1">
          <mxGeometry width="50" height="50" relative="1" as="geometry">
            <mxPoint x="338" y="593" as="sourcePoint" />
            <mxPoint x="341" y="323" as="targetPoint" />
          </mxGeometry>
        </mxCell>
        <mxCell id="LKzTZfADCMagp4abgQNa-4" value="" style="endArrow=classic;html=1;rounded=0;fontSize=12;startSize=8;endSize=8;curved=1;entryX=0.951;entryY=0.55;entryDx=0;entryDy=0;entryPerimeter=0;" edge="1" parent="WWciUWRnBZZ9eofVKHLs-1" target="WWciUWRnBZZ9eofVKHLs-5">
          <mxGeometry width="50" height="50" relative="1" as="geometry">
            <mxPoint x="342.5" y="324" as="sourcePoint" />
            <mxPoint x="259.99525075372003" y="321.79660907057405" as="targetPoint" />
            <Array as="points" />
          </mxGeometry>
        </mxCell>
      </root>
    </mxGraphModel>
  </diagram>
  <diagram name="Page-1" id="EXhy_dftO8JzQik2FnC5">
    <mxGraphModel dx="762" dy="607" grid="0" gridSize="10" guides="1" tooltips="1" connect="1" arrows="1" fold="1" page="0" pageScale="1" pageWidth="850" pageHeight="1100" math="0" shadow="0">
      <root>
        <mxCell id="0" />
        <mxCell id="1" parent="0" />
        <mxCell id="6odC_s9sJOPoDGgsGerB-5" style="edgeStyle=none;curved=1;rounded=0;orthogonalLoop=1;jettySize=auto;html=1;exitX=0.5;exitY=1;exitDx=0;exitDy=0;fontSize=12;startSize=8;endSize=8;" edge="1" parent="1" source="6odC_s9sJOPoDGgsGerB-1">
          <mxGeometry relative="1" as="geometry">
            <mxPoint x="179" y="265.9999694824219" as="targetPoint" />
          </mxGeometry>
        </mxCell>
        <mxCell id="6odC_s9sJOPoDGgsGerB-1" value="START" style="ellipse;whiteSpace=wrap;html=1;" vertex="1" parent="1">
          <mxGeometry x="98" y="135" width="162" height="105" as="geometry" />
        </mxCell>
        <mxCell id="6odC_s9sJOPoDGgsGerB-6" style="edgeStyle=none;curved=1;rounded=0;orthogonalLoop=1;jettySize=auto;html=1;exitX=0.5;exitY=1;exitDx=0;exitDy=0;fontSize=12;startSize=8;endSize=8;" edge="1" parent="1" source="6odC_s9sJOPoDGgsGerB-2">
          <mxGeometry relative="1" as="geometry">
            <mxPoint x="175" y="410.79998779296875" as="targetPoint" />
          </mxGeometry>
        </mxCell>
        <mxCell id="6odC_s9sJOPoDGgsGerB-2" value="Pilih nilai terhadap&amp;nbsp;&lt;div&gt;analog Potensio&lt;/div&gt;" style="shape=parallelogram;perimeter=parallelogramPerimeter;whiteSpace=wrap;html=1;fixedSize=1;" vertex="1" parent="1">
          <mxGeometry x="78" y="274" width="193" height="91" as="geometry" />
        </mxCell>
        <mxCell id="6odC_s9sJOPoDGgsGerB-11" style="edgeStyle=none;curved=1;rounded=0;orthogonalLoop=1;jettySize=auto;html=1;exitX=0.75;exitY=0;exitDx=0;exitDy=0;fontSize=12;startSize=8;endSize=8;" edge="1" parent="1" source="6odC_s9sJOPoDGgsGerB-4">
          <mxGeometry relative="1" as="geometry">
            <mxPoint x="203" y="375.5999755859375" as="targetPoint" />
          </mxGeometry>
        </mxCell>
        <mxCell id="6odC_s9sJOPoDGgsGerB-4" value="Menampilkan nilai analog potensio" style="shape=parallelogram;perimeter=parallelogramPerimeter;whiteSpace=wrap;html=1;fixedSize=1;" vertex="1" parent="1">
          <mxGeometry x="67" y="423" width="181" height="94" as="geometry" />
        </mxCell>
      </root>
    </mxGraphModel>
  </diagram>
  <diagram name="Copy of Page-1" id="9TQVs32Rpx0igYPT6Dsj">
    <mxGraphModel dx="346" dy="276" grid="0" gridSize="10" guides="1" tooltips="1" connect="1" arrows="1" fold="1" page="0" pageScale="1" pageWidth="850" pageHeight="1100" math="0" shadow="0">
      <root>
        <mxCell id="WWciUWRnBZZ9eofVKHLs-0" />
        <mxCell id="WWciUWRnBZZ9eofVKHLs-1" parent="WWciUWRnBZZ9eofVKHLs-0" />
        <mxCell id="WWciUWRnBZZ9eofVKHLs-2" style="edgeStyle=none;curved=1;rounded=0;orthogonalLoop=1;jettySize=auto;html=1;exitX=0.5;exitY=1;exitDx=0;exitDy=0;fontSize=12;startSize=8;endSize=8;" edge="1" parent="WWciUWRnBZZ9eofVKHLs-1" source="WWciUWRnBZZ9eofVKHLs-3">
          <mxGeometry relative="1" as="geometry">
            <mxPoint x="179" y="265.9999694824219" as="targetPoint" />
          </mxGeometry>
        </mxCell>
        <mxCell id="WWciUWRnBZZ9eofVKHLs-3" value="START" style="ellipse;whiteSpace=wrap;html=1;" vertex="1" parent="WWciUWRnBZZ9eofVKHLs-1">
          <mxGeometry x="98" y="135" width="162" height="105" as="geometry" />
        </mxCell>
        <mxCell id="WWciUWRnBZZ9eofVKHLs-4" style="edgeStyle=none;curved=1;rounded=0;orthogonalLoop=1;jettySize=auto;html=1;exitX=0.5;exitY=1;exitDx=0;exitDy=0;fontSize=12;startSize=8;endSize=8;" edge="1" parent="WWciUWRnBZZ9eofVKHLs-1" source="WWciUWRnBZZ9eofVKHLs-5">
          <mxGeometry relative="1" as="geometry">
            <mxPoint x="175" y="410.79998779296875" as="targetPoint" />
          </mxGeometry>
        </mxCell>
        <mxCell id="WWciUWRnBZZ9eofVKHLs-5" value="Pilih nilai terhadap&amp;nbsp;&lt;div&gt;analog Potensio (0-10240)&lt;/div&gt;" style="shape=parallelogram;perimeter=parallelogramPerimeter;whiteSpace=wrap;html=1;fixedSize=1;" vertex="1" parent="WWciUWRnBZZ9eofVKHLs-1">
          <mxGeometry x="78" y="274" width="193" height="91" as="geometry" />
        </mxCell>
        <mxCell id="WWciUWRnBZZ9eofVKHLs-7" value="Menampilkan nilai voltage potensio" style="shape=parallelogram;perimeter=parallelogramPerimeter;whiteSpace=wrap;html=1;fixedSize=1;" vertex="1" parent="WWciUWRnBZZ9eofVKHLs-1">
          <mxGeometry x="84" y="538" width="181" height="94" as="geometry" />
        </mxCell>
        <mxCell id="LKzTZfADCMagp4abgQNa-1" style="edgeStyle=none;curved=1;rounded=0;orthogonalLoop=1;jettySize=auto;html=1;exitX=0.5;exitY=1;exitDx=0;exitDy=0;fontSize=12;startSize=8;endSize=8;" edge="1" parent="WWciUWRnBZZ9eofVKHLs-1" source="LKzTZfADCMagp4abgQNa-0">
          <mxGeometry relative="1" as="geometry">
            <mxPoint x="179" y="533.9090853604403" as="targetPoint" />
          </mxGeometry>
        </mxCell>
        <mxCell id="LKzTZfADCMagp4abgQNa-0" value="Memgubah nilai analog menjadi nilai vot ( tegangan ) (0-5)" style="rounded=0;whiteSpace=wrap;html=1;" vertex="1" parent="WWciUWRnBZZ9eofVKHLs-1">
          <mxGeometry x="105.75" y="416" width="146.5" height="80" as="geometry" />
        </mxCell>
        <mxCell id="LKzTZfADCMagp4abgQNa-2" value="" style="endArrow=none;html=1;rounded=0;fontSize=12;startSize=8;endSize=8;curved=1;" edge="1" parent="WWciUWRnBZZ9eofVKHLs-1">
          <mxGeometry width="50" height="50" relative="1" as="geometry">
            <mxPoint x="249" y="596" as="sourcePoint" />
            <mxPoint x="338" y="594" as="targetPoint" />
          </mxGeometry>
        </mxCell>
        <mxCell id="LKzTZfADCMagp4abgQNa-3" value="" style="endArrow=none;html=1;rounded=0;fontSize=12;startSize=8;endSize=8;curved=1;" edge="1" parent="WWciUWRnBZZ9eofVKHLs-1">
          <mxGeometry width="50" height="50" relative="1" as="geometry">
            <mxPoint x="338" y="593" as="sourcePoint" />
            <mxPoint x="341" y="323" as="targetPoint" />
          </mxGeometry>
        </mxCell>
        <mxCell id="LKzTZfADCMagp4abgQNa-4" value="" style="endArrow=classic;html=1;rounded=0;fontSize=12;startSize=8;endSize=8;curved=1;entryX=0.951;entryY=0.55;entryDx=0;entryDy=0;entryPerimeter=0;" edge="1" parent="WWciUWRnBZZ9eofVKHLs-1" target="WWciUWRnBZZ9eofVKHLs-5">
          <mxGeometry width="50" height="50" relative="1" as="geometry">
            <mxPoint x="342.5" y="324" as="sourcePoint" />
            <mxPoint x="259.99525075372003" y="321.79660907057405" as="targetPoint" />
            <Array as="points" />
          </mxGeometry>
        </mxCell>
      </root>
    </mxGraphModel>
  </diagram>
  <diagram name="Page-1" id="jGXWKaHV8CZX3xIcVCyp">
    <mxGraphModel dx="762" dy="607" grid="0" gridSize="10" guides="1" tooltips="1" connect="1" arrows="1" fold="1" page="0" pageScale="1" pageWidth="850" pageHeight="1100" math="0" shadow="0">
      <root>
        <mxCell id="0" />
        <mxCell id="1" parent="0" />
        <mxCell id="6odC_s9sJOPoDGgsGerB-5" style="edgeStyle=none;curved=1;rounded=0;orthogonalLoop=1;jettySize=auto;html=1;exitX=0.5;exitY=1;exitDx=0;exitDy=0;fontSize=12;startSize=8;endSize=8;" edge="1" parent="1" source="6odC_s9sJOPoDGgsGerB-1">
          <mxGeometry relative="1" as="geometry">
            <mxPoint x="179" y="265.9999694824219" as="targetPoint" />
          </mxGeometry>
        </mxCell>
        <mxCell id="6odC_s9sJOPoDGgsGerB-1" value="START" style="ellipse;whiteSpace=wrap;html=1;" vertex="1" parent="1">
          <mxGeometry x="98" y="135" width="162" height="105" as="geometry" />
        </mxCell>
        <mxCell id="6odC_s9sJOPoDGgsGerB-6" style="edgeStyle=none;curved=1;rounded=0;orthogonalLoop=1;jettySize=auto;html=1;exitX=0.5;exitY=1;exitDx=0;exitDy=0;fontSize=12;startSize=8;endSize=8;" edge="1" parent="1" source="6odC_s9sJOPoDGgsGerB-2">
          <mxGeometry relative="1" as="geometry">
            <mxPoint x="175" y="410.79998779296875" as="targetPoint" />
          </mxGeometry>
        </mxCell>
        <mxCell id="6odC_s9sJOPoDGgsGerB-2" value="Pilih nilai terhadap&amp;nbsp;&lt;div&gt;analog Potensio&lt;/div&gt;" style="shape=parallelogram;perimeter=parallelogramPerimeter;whiteSpace=wrap;html=1;fixedSize=1;" vertex="1" parent="1">
          <mxGeometry x="78" y="274" width="193" height="91" as="geometry" />
        </mxCell>
        <mxCell id="6odC_s9sJOPoDGgsGerB-11" style="edgeStyle=none;curved=1;rounded=0;orthogonalLoop=1;jettySize=auto;html=1;exitX=0.75;exitY=0;exitDx=0;exitDy=0;fontSize=12;startSize=8;endSize=8;" edge="1" parent="1" source="6odC_s9sJOPoDGgsGerB-4">
          <mxGeometry relative="1" as="geometry">
            <mxPoint x="203" y="375.5999755859375" as="targetPoint" />
          </mxGeometry>
        </mxCell>
        <mxCell id="6odC_s9sJOPoDGgsGerB-4" value="Menampilkan nilai analog potensio" style="shape=parallelogram;perimeter=parallelogramPerimeter;whiteSpace=wrap;html=1;fixedSize=1;" vertex="1" parent="1">
          <mxGeometry x="67" y="423" width="181" height="94" as="geometry" />
        </mxCell>
      </root>
    </mxGraphModel>
  </diagram>
  <diagram name="Copy of Page-1" id="17P5fe3HLAx_M7ISK9nd">
    <mxGraphModel dx="346" dy="276" grid="0" gridSize="10" guides="1" tooltips="1" connect="1" arrows="1" fold="1" page="0" pageScale="1" pageWidth="850" pageHeight="1100" math="0" shadow="0">
      <root>
        <mxCell id="WWciUWRnBZZ9eofVKHLs-0" />
        <mxCell id="WWciUWRnBZZ9eofVKHLs-1" parent="WWciUWRnBZZ9eofVKHLs-0" />
        <mxCell id="WWciUWRnBZZ9eofVKHLs-2" style="edgeStyle=none;curved=1;rounded=0;orthogonalLoop=1;jettySize=auto;html=1;exitX=0.5;exitY=1;exitDx=0;exitDy=0;fontSize=12;startSize=8;endSize=8;" edge="1" parent="WWciUWRnBZZ9eofVKHLs-1" source="WWciUWRnBZZ9eofVKHLs-3">
          <mxGeometry relative="1" as="geometry">
            <mxPoint x="179" y="265.9999694824219" as="targetPoint" />
          </mxGeometry>
        </mxCell>
        <mxCell id="WWciUWRnBZZ9eofVKHLs-3" value="START" style="ellipse;whiteSpace=wrap;html=1;" vertex="1" parent="WWciUWRnBZZ9eofVKHLs-1">
          <mxGeometry x="98" y="135" width="162" height="105" as="geometry" />
        </mxCell>
        <mxCell id="WWciUWRnBZZ9eofVKHLs-4" style="edgeStyle=none;curved=1;rounded=0;orthogonalLoop=1;jettySize=auto;html=1;exitX=0.5;exitY=1;exitDx=0;exitDy=0;fontSize=12;startSize=8;endSize=8;" edge="1" parent="WWciUWRnBZZ9eofVKHLs-1" source="WWciUWRnBZZ9eofVKHLs-5">
          <mxGeometry relative="1" as="geometry">
            <mxPoint x="175" y="410.79998779296875" as="targetPoint" />
          </mxGeometry>
        </mxCell>
        <mxCell id="WWciUWRnBZZ9eofVKHLs-5" value="Pilih nilai terhadap&amp;nbsp;&lt;div&gt;analog Potensio (0-10240)&lt;/div&gt;" style="shape=parallelogram;perimeter=parallelogramPerimeter;whiteSpace=wrap;html=1;fixedSize=1;" vertex="1" parent="WWciUWRnBZZ9eofVKHLs-1">
          <mxGeometry x="78" y="274" width="193" height="91" as="geometry" />
        </mxCell>
        <mxCell id="WWciUWRnBZZ9eofVKHLs-7" value="Menampilkan nilai voltage potensio" style="shape=parallelogram;perimeter=parallelogramPerimeter;whiteSpace=wrap;html=1;fixedSize=1;" vertex="1" parent="WWciUWRnBZZ9eofVKHLs-1">
          <mxGeometry x="84" y="538" width="181" height="94" as="geometry" />
        </mxCell>
        <mxCell id="LKzTZfADCMagp4abgQNa-1" style="edgeStyle=none;curved=1;rounded=0;orthogonalLoop=1;jettySize=auto;html=1;exitX=0.5;exitY=1;exitDx=0;exitDy=0;fontSize=12;startSize=8;endSize=8;" edge="1" parent="WWciUWRnBZZ9eofVKHLs-1" source="LKzTZfADCMagp4abgQNa-0">
          <mxGeometry relative="1" as="geometry">
            <mxPoint x="179" y="533.9090853604403" as="targetPoint" />
          </mxGeometry>
        </mxCell>
        <mxCell id="LKzTZfADCMagp4abgQNa-0" value="Memgubah nilai analog menjadi nilai vot ( tegangan ) (0-5)" style="rounded=0;whiteSpace=wrap;html=1;" vertex="1" parent="WWciUWRnBZZ9eofVKHLs-1">
          <mxGeometry x="105.75" y="416" width="146.5" height="80" as="geometry" />
        </mxCell>
        <mxCell id="LKzTZfADCMagp4abgQNa-2" value="" style="endArrow=none;html=1;rounded=0;fontSize=12;startSize=8;endSize=8;curved=1;" edge="1" parent="WWciUWRnBZZ9eofVKHLs-1">
          <mxGeometry width="50" height="50" relative="1" as="geometry">
            <mxPoint x="249" y="596" as="sourcePoint" />
            <mxPoint x="338" y="594" as="targetPoint" />
          </mxGeometry>
        </mxCell>
        <mxCell id="LKzTZfADCMagp4abgQNa-3" value="" style="endArrow=none;html=1;rounded=0;fontSize=12;startSize=8;endSize=8;curved=1;" edge="1" parent="WWciUWRnBZZ9eofVKHLs-1">
          <mxGeometry width="50" height="50" relative="1" as="geometry">
            <mxPoint x="338" y="593" as="sourcePoint" />
            <mxPoint x="341" y="323" as="targetPoint" />
          </mxGeometry>
        </mxCell>
        <mxCell id="LKzTZfADCMagp4abgQNa-4" value="" style="endArrow=classic;html=1;rounded=0;fontSize=12;startSize=8;endSize=8;curved=1;entryX=0.951;entryY=0.55;entryDx=0;entryDy=0;entryPerimeter=0;" edge="1" parent="WWciUWRnBZZ9eofVKHLs-1" target="WWciUWRnBZZ9eofVKHLs-5">
          <mxGeometry width="50" height="50" relative="1" as="geometry">
            <mxPoint x="342.5" y="324" as="sourcePoint" />
            <mxPoint x="259.99525075372003" y="321.79660907057405" as="targetPoint" />
            <Array as="points" />
          </mxGeometry>
        </mxCell>
      </root>
    </mxGraphModel>
  </diagram>
  <diagram name="Page-1" id="M-nBulF4DzzXQ4jyiYho">
    <mxGraphModel dx="762" dy="607" grid="0" gridSize="10" guides="1" tooltips="1" connect="1" arrows="1" fold="1" page="0" pageScale="1" pageWidth="850" pageHeight="1100" math="0" shadow="0">
      <root>
        <mxCell id="0" />
        <mxCell id="1" parent="0" />
        <mxCell id="6odC_s9sJOPoDGgsGerB-5" style="edgeStyle=none;curved=1;rounded=0;orthogonalLoop=1;jettySize=auto;html=1;exitX=0.5;exitY=1;exitDx=0;exitDy=0;fontSize=12;startSize=8;endSize=8;" edge="1" parent="1" source="6odC_s9sJOPoDGgsGerB-1">
          <mxGeometry relative="1" as="geometry">
            <mxPoint x="179" y="265.9999694824219" as="targetPoint" />
          </mxGeometry>
        </mxCell>
        <mxCell id="6odC_s9sJOPoDGgsGerB-1" value="START" style="ellipse;whiteSpace=wrap;html=1;" vertex="1" parent="1">
          <mxGeometry x="98" y="135" width="162" height="105" as="geometry" />
        </mxCell>
        <mxCell id="6odC_s9sJOPoDGgsGerB-6" style="edgeStyle=none;curved=1;rounded=0;orthogonalLoop=1;jettySize=auto;html=1;exitX=0.5;exitY=1;exitDx=0;exitDy=0;fontSize=12;startSize=8;endSize=8;" edge="1" parent="1" source="6odC_s9sJOPoDGgsGerB-2">
          <mxGeometry relative="1" as="geometry">
            <mxPoint x="175" y="410.79998779296875" as="targetPoint" />
          </mxGeometry>
        </mxCell>
        <mxCell id="6odC_s9sJOPoDGgsGerB-2" value="Pilih nilai terhadap&amp;nbsp;&lt;div&gt;analog Potensio&lt;/div&gt;" style="shape=parallelogram;perimeter=parallelogramPerimeter;whiteSpace=wrap;html=1;fixedSize=1;" vertex="1" parent="1">
          <mxGeometry x="78" y="274" width="193" height="91" as="geometry" />
        </mxCell>
        <mxCell id="6odC_s9sJOPoDGgsGerB-11" style="edgeStyle=none;curved=1;rounded=0;orthogonalLoop=1;jettySize=auto;html=1;exitX=0.75;exitY=0;exitDx=0;exitDy=0;fontSize=12;startSize=8;endSize=8;" edge="1" parent="1" source="6odC_s9sJOPoDGgsGerB-4">
          <mxGeometry relative="1" as="geometry">
            <mxPoint x="203" y="375.5999755859375" as="targetPoint" />
          </mxGeometry>
        </mxCell>
        <mxCell id="6odC_s9sJOPoDGgsGerB-4" value="Menampilkan nilai analog potensio" style="shape=parallelogram;perimeter=parallelogramPerimeter;whiteSpace=wrap;html=1;fixedSize=1;" vertex="1" parent="1">
          <mxGeometry x="67" y="423" width="181" height="94" as="geometry" />
        </mxCell>
      </root>
    </mxGraphModel>
  </diagram>
  <diagram name="Copy of Page-1" id="khHuZ_19vUhGNKu7_qT4">
    <mxGraphModel dx="346" dy="276" grid="0" gridSize="10" guides="1" tooltips="1" connect="1" arrows="1" fold="1" page="0" pageScale="1" pageWidth="850" pageHeight="1100" math="0" shadow="0">
      <root>
        <mxCell id="WWciUWRnBZZ9eofVKHLs-0" />
        <mxCell id="WWciUWRnBZZ9eofVKHLs-1" parent="WWciUWRnBZZ9eofVKHLs-0" />
        <mxCell id="WWciUWRnBZZ9eofVKHLs-2" style="edgeStyle=none;curved=1;rounded=0;orthogonalLoop=1;jettySize=auto;html=1;exitX=0.5;exitY=1;exitDx=0;exitDy=0;fontSize=12;startSize=8;endSize=8;" edge="1" parent="WWciUWRnBZZ9eofVKHLs-1" source="WWciUWRnBZZ9eofVKHLs-3">
          <mxGeometry relative="1" as="geometry">
            <mxPoint x="179" y="265.9999694824219" as="targetPoint" />
          </mxGeometry>
        </mxCell>
        <mxCell id="WWciUWRnBZZ9eofVKHLs-3" value="START" style="ellipse;whiteSpace=wrap;html=1;" vertex="1" parent="WWciUWRnBZZ9eofVKHLs-1">
          <mxGeometry x="98" y="135" width="162" height="105" as="geometry" />
        </mxCell>
        <mxCell id="WWciUWRnBZZ9eofVKHLs-4" style="edgeStyle=none;curved=1;rounded=0;orthogonalLoop=1;jettySize=auto;html=1;exitX=0.5;exitY=1;exitDx=0;exitDy=0;fontSize=12;startSize=8;endSize=8;" edge="1" parent="WWciUWRnBZZ9eofVKHLs-1" source="WWciUWRnBZZ9eofVKHLs-5">
          <mxGeometry relative="1" as="geometry">
            <mxPoint x="175" y="410.79998779296875" as="targetPoint" />
          </mxGeometry>
        </mxCell>
        <mxCell id="WWciUWRnBZZ9eofVKHLs-5" value="Pilih nilai terhadap&amp;nbsp;&lt;div&gt;analog Potensio (0-10240)&lt;/div&gt;" style="shape=parallelogram;perimeter=parallelogramPerimeter;whiteSpace=wrap;html=1;fixedSize=1;" vertex="1" parent="WWciUWRnBZZ9eofVKHLs-1">
          <mxGeometry x="78" y="274" width="193" height="91" as="geometry" />
        </mxCell>
        <mxCell id="WWciUWRnBZZ9eofVKHLs-7" value="Menampilkan nilai voltage potensio" style="shape=parallelogram;perimeter=parallelogramPerimeter;whiteSpace=wrap;html=1;fixedSize=1;" vertex="1" parent="WWciUWRnBZZ9eofVKHLs-1">
          <mxGeometry x="84" y="538" width="181" height="94" as="geometry" />
        </mxCell>
        <mxCell id="LKzTZfADCMagp4abgQNa-1" style="edgeStyle=none;curved=1;rounded=0;orthogonalLoop=1;jettySize=auto;html=1;exitX=0.5;exitY=1;exitDx=0;exitDy=0;fontSize=12;startSize=8;endSize=8;" edge="1" parent="WWciUWRnBZZ9eofVKHLs-1" source="LKzTZfADCMagp4abgQNa-0">
          <mxGeometry relative="1" as="geometry">
            <mxPoint x="179" y="533.9090853604403" as="targetPoint" />
          </mxGeometry>
        </mxCell>
        <mxCell id="LKzTZfADCMagp4abgQNa-0" value="Memgubah nilai analog menjadi nilai vot ( tegangan ) (0-5)" style="rounded=0;whiteSpace=wrap;html=1;" vertex="1" parent="WWciUWRnBZZ9eofVKHLs-1">
          <mxGeometry x="105.75" y="416" width="146.5" height="80" as="geometry" />
        </mxCell>
        <mxCell id="LKzTZfADCMagp4abgQNa-2" value="" style="endArrow=none;html=1;rounded=0;fontSize=12;startSize=8;endSize=8;curved=1;" edge="1" parent="WWciUWRnBZZ9eofVKHLs-1">
          <mxGeometry width="50" height="50" relative="1" as="geometry">
            <mxPoint x="249" y="596" as="sourcePoint" />
            <mxPoint x="338" y="594" as="targetPoint" />
          </mxGeometry>
        </mxCell>
        <mxCell id="LKzTZfADCMagp4abgQNa-3" value="" style="endArrow=none;html=1;rounded=0;fontSize=12;startSize=8;endSize=8;curved=1;" edge="1" parent="WWciUWRnBZZ9eofVKHLs-1">
          <mxGeometry width="50" height="50" relative="1" as="geometry">
            <mxPoint x="338" y="593" as="sourcePoint" />
            <mxPoint x="341" y="323" as="targetPoint" />
          </mxGeometry>
        </mxCell>
        <mxCell id="LKzTZfADCMagp4abgQNa-4" value="" style="endArrow=classic;html=1;rounded=0;fontSize=12;startSize=8;endSize=8;curved=1;entryX=0.951;entryY=0.55;entryDx=0;entryDy=0;entryPerimeter=0;" edge="1" parent="WWciUWRnBZZ9eofVKHLs-1" target="WWciUWRnBZZ9eofVKHLs-5">
          <mxGeometry width="50" height="50" relative="1" as="geometry">
            <mxPoint x="342.5" y="324" as="sourcePoint" />
            <mxPoint x="259.99525075372003" y="321.79660907057405" as="targetPoint" />
            <Array as="points" />
          </mxGeometry>
        </mxCell>
      </root>
    </mxGraphModel>
  </diagram>
</mxfile>
